<?xml version="1.0" encoding="UTF-8"?>
<!-- Created with Inkscape (http://www.inkscape.org/) -->
<svg width="246.24mm" height="40.884mm" version="1.1" viewBox="0 0 246.24 40.884" xmlns="http://www.w3.org/2000/svg" xmlns:cc="http://creativecommons.org/ns#" xmlns:dc="http://purl.org/dc/elements/1.1/" xmlns:rdf="http://www.w3.org/1999/02/22-rdf-syntax-ns#">
 <metadata>
  <rdf:RDF>
   <cc:Work rdf:about="">
    <dc:format>image/svg+xml</dc:format>
    <dc:type rdf:resource="http://purl.org/dc/dcmitype/StillImage"/>
    <dc:title/>
   </cc:Work>
  </rdf:RDF>
 </metadata>
 <g transform="translate(-14.499 -19.912)">
  <g transform="matrix(.26458 0 0 .26458 14.498 19.912)">
   <g clip-rule="evenodd" fill-rule="evenodd">
    <path d="m-47.547 226.87c0-97.129 0.094-194.26-0.195-291.39-0.021-6.982 1.404-8.411 8.388-8.389 94.397 0.292 188.8 0.292 283.2 0 6.984-0.022 8.41 1.407 8.389 8.389-0.289 97.128-0.195 194.26-0.195 291.39-3.238 2.008-6.837 1.129-10.268 1.131-93.015 0.049-186.03 0.049-279.05 0-3.431-2e-3 -7.03 0.877-10.267-1.131z" display="none" fill="#2671be"/>
    <path d="m141.63 0.032c27.128-8e-3 54.256-0.078 81.384 0.019 16.127 0.056 20.674 4.627 17.198 18.137-10.181 39.566-20.591 79.092-31.141 118.59-3.3363 12.484-11.001 17.598-26.484 17.637-54.256 0.137-108.51 0.152-162.77-6e-3 -17.734-0.053-22.399-5.148-18.578-19.404 10.367-38.717 20.79-77.422 31.296-116.11 4.0023-14.744 10.017-18.792 27.706-18.835 27.129-0.065 54.257-0.017 81.386-0.025z" fill="#e0eaf5" stroke-width="1.0858"/>
    <path d="m85.365 149.81c-23.014-8e-3 -46.029 0.098-69.042-0.053-11.67-0.076-13.792-2.83-11.165-14.244 8.906-38.71 18.099-77.355 26.807-116.11 2.335-10.394 7.372-14.988 18.508-14.885 46.024 0.427 132.06 0.137 178.08 0.184 11.543 0.011 13.481 2.48 10.89 14.187-8.413 38.007-16.879 76.003-25.494 113.96-3.224 14.207-6.938 16.918-21.885 16.951-22.234 0.047-84.469 0.012-106.7 4e-3z" fill="#2671be"/>
    <path d="m104.95 73.951c-1.543-1.81-3.237-3.894-5.031-5.886-10.173-11.3-20.256-22.684-30.61-33.815-4.738-5.094-6.248-10.041-0.558-15.069 5.623-4.97 11.148-4.53 16.306 1.188 14.365 15.919 28.713 31.856 43.316 47.556 5.452 5.864 4.182 9.851-1.823 14.196-23.049 16.683-45.968 33.547-68.862 50.443-5.146 3.799-10.052 4.75-14.209-0.861-4.586-6.189-0.343-9.871 4.414-13.335 17.013-12.392 33.993-24.83 50.9-37.366 2.355-1.746 5.736-2.764 6.157-7.051z" fill="#fdfdfe"/>
    <path d="m112.24 133.82c-6.196 0-12.401 0.213-18.583-0.068-4.932-0.223-7.9-2.979-7.838-8.174 0.06-4.912 2.536-8.605 7.463-8.738 13.542-0.363 27.104-0.285 40.651-0.02 4.305 0.084 7.483 2.889 7.457 7.375-0.031 5.146-2.739 9.133-8.25 9.465-6.944 0.42-13.931 0.104-20.899 0.104-1e-3 0.017-1e-3 0.037-1e-3 0.056z" fill="#fcfdfd"/>
   </g>
   <text x="141.63171" y="130.56967" fill="#ffffff" font-family="sans-serif" font-size="150.94px" letter-spacing="0px" stroke-width="1.5723" word-spacing="0px" style="line-height:1.25" xml:space="preserve"><tspan x="141.63171" y="130.56967" fill="#ffffff" font-family="Consolas" stroke-width="1.5723">?</tspan></text>
   <g transform="translate(-56.081 -61.657)" fill="#2671be" aria-label="PowerShelldle">
    <path d="m352.62 129.02q0 3.75-1.4062 7.4531-1.4062 3.6562-4.3594 6.5625-2.9531 2.9062-7.5469 4.7344-4.5938 1.7812-10.969 1.7812h-7.5938v21.984h-8.3438v-61.266h17.25q4.5469 0 8.7188 1.0312 4.1719 0.98438 7.3125 3.2344 3.1875 2.25 5.0625 5.8125t1.875 8.6719zm-8.6719 0.375q0-5.9062-3.8906-9.0469-3.8438-3.1406-10.781-3.1406h-8.5312v25.219h7.7812q7.4062 0 11.391-3.2344 4.0312-3.2344 4.0312-9.7969z"/>
    <path d="m406.34 147.63q0 5.4844-1.5469 10.078-1.5469 4.5469-4.4531 7.8281-2.9062 3.2344-7.0781 5.0625-4.1719 1.7812-9.4688 1.7812-5.0625 0-9.0938-1.5469-3.9844-1.5938-6.7969-4.6406-2.7656-3.0469-4.2656-7.5469-1.4531-4.5-1.4531-10.359 0-5.4844 1.5469-9.9844 1.5469-4.5469 4.4531-7.7812 2.9062-3.2812 7.0781-5.0625 4.1719-1.8281 9.4688-1.8281 5.0625 0 9.0469 1.5938 4.0312 1.5469 6.7969 4.5938 2.8125 3 4.2656 7.5 1.5 4.5 1.5 10.312zm-8.3438 0.375q0-4.3594-0.98438-7.5938-0.9375-3.2812-2.7188-5.4375-1.7812-2.2031-4.3594-3.2812-2.5312-1.125-5.6719-1.125-3.6562 0-6.2812 1.4531-2.5781 1.4062-4.2656 3.7969-1.6406 2.3906-2.4375 5.5781-0.75 3.1406-0.75 6.6094 0 4.3594 0.9375 7.6406 0.98437 3.2812 2.7656 5.4844 1.7812 2.1562 4.3125 3.2812 2.5312 1.0781 5.7188 1.0781 3.6562 0 6.2344-1.4062 2.625-1.4531 4.2656-3.8438 1.6875-2.3906 2.4375-5.5312 0.79688-3.1875 0.79688-6.7031z"/>
    <path d="m461.84 124.47-6.8438 47.062h-9.8906l-6.7969-19.688-1.3594-4.7812-1.5469 5.0625-6.5156 19.406h-9.6094l-6.7969-47.062h7.9688l3.9375 31.969 0.84375 7.125 2.0156-6.2344 6.8438-21.141h5.8594l7.3594 20.859 2.1094 6.2344 0.70313-6.6094 3.6562-32.203z"/>
    <path d="m510.88 145.52q0 1.7344-0.0469 2.9062-0.0469 1.1719-0.14062 2.2031h-33.047q0 7.2188 4.0312 11.109 4.0312 3.8438 11.625 3.8438 2.0625 0 4.125-0.14062 2.0625-0.1875 3.9844-0.46875 1.9219-0.28125 3.6562-0.60938 1.7812-0.375 3.2812-0.79687v6.7031q-3.3281 0.9375-7.5469 1.5-4.1719 0.60938-8.6719 0.60938-6.0469 0-10.406-1.6406-4.3594-1.6406-7.1719-4.7344-2.7656-3.1406-4.125-7.6406-1.3125-4.5469-1.3125-10.266 0-4.9688 1.4062-9.375 1.4531-4.4531 4.1719-7.7812 2.7656-3.375 6.75-5.3438 3.9844-1.9688 9.0469-1.9688 4.9219 0 8.7188 1.5469 3.7969 1.5469 6.375 4.4062 2.625 2.8125 3.9375 6.8906 1.3594 4.0312 1.3594 9.0469zm-8.4844-1.1719q0.14063-3.1406-0.60937-5.7188-0.75-2.625-2.3438-4.5-1.5469-1.875-3.8906-2.9062-2.3438-1.0781-5.4375-1.0781-2.6719 0-4.875 1.0312-2.2031 1.0312-3.7969 2.9062t-2.5781 4.5q-0.98437 2.625-1.2188 5.7656z"/>
    <path d="m525.92 124.47h7.4531l0.23437 8.6719q4.1719-5.0156 8.2031-7.2656 4.0781-2.25 8.2031-2.25 7.3125 0 11.062 4.7344 3.7969 4.7344 3.5156 14.062h-8.25q0.14062-6.1875-1.8281-8.9531-1.9219-2.8125-5.6719-2.8125-1.6406 0-3.3281 0.60937-1.6406 0.5625-3.4219 1.875-1.7344 1.2656-3.7031 3.2812-1.9688 2.0156-4.2188 4.875v30.234h-8.25z"/>
    <path d="m616.11 154.94q0 4.3594-1.7812 7.6406t-4.9688 5.4844q-3.1875 2.1562-7.6875 3.2344-4.4531 1.0781-9.8438 1.0781-2.4375 0-4.875-0.1875-2.3906-0.1875-4.6406-0.46875-2.2031-0.28125-4.1719-0.65625t-3.5625-0.79688v-8.0625q3.5156 1.3125 7.875 2.0625 4.4062 0.75 9.9844 0.75 4.0312 0 6.8438-0.60937 2.8594-0.65625 4.6406-1.875 1.8281-1.2656 2.625-3.0469 0.84375-1.7812 0.84375-4.0781 0-2.4844-1.4062-4.2188-1.3594-1.7812-3.6094-3.1406-2.25-1.4062-5.1562-2.5312-2.8594-1.1719-5.8594-2.3906t-5.9062-2.625q-2.8594-1.4531-5.1094-3.375-2.25-1.9688-3.6562-4.5938-1.3594-2.625-1.3594-6.2344 0-3.1406 1.3125-6.1875 1.3125-3.0469 4.0781-5.3906 2.7656-2.3906 7.0781-3.8438 4.3594-1.4531 10.359-1.4531 1.5469 0 3.3281 0.14063 1.8281 0.14062 3.6562 0.42187 1.875 0.23438 3.6562 0.5625 1.8281 0.32813 3.375 0.70313v7.5q-3.6094-1.0312-7.2188-1.5469-3.6094-0.5625-6.9844-0.5625-7.1719 0-10.547 2.3906-3.375 2.3906-3.375 6.4219 0 2.4844 1.3594 4.2656 1.4062 1.7812 3.6562 3.1875t5.1094 2.5781q2.9062 1.125 5.9062 2.3438t5.8594 2.6719q2.9062 1.4531 5.1562 3.4688 2.25 1.9688 3.6094 4.6406 1.4062 2.6719 1.4062 6.3281z"/>
    <path d="m667.58 171.53h-8.1562v-30.047q0-5.4375-2.0625-8.1094-2.0156-2.7188-5.8125-2.7188-1.6406 0-3.0938 0.46875-1.4062 0.42187-2.9531 1.5469-1.5469 1.0781-3.375 2.9531-1.8281 1.875-4.2188 4.6875v31.219h-8.1562v-66.234h8.1562v19.172l-0.28125 7.4062q1.9219-2.2969 3.75-3.8438 1.875-1.5938 3.7031-2.5781 1.875-0.98437 3.7969-1.4062 1.9219-0.42187 3.9844-0.42187 7.0312 0 10.875 4.3125 3.8438 4.2656 3.8438 12.891z"/>
    <path d="m722.38 145.52q0 1.7344-0.0469 2.9062-0.0469 1.1719-0.14062 2.2031h-33.047q0 7.2188 4.0312 11.109 4.0312 3.8438 11.625 3.8438 2.0625 0 4.125-0.14062 2.0625-0.1875 3.9844-0.46875 1.9219-0.28125 3.6562-0.60938 1.7812-0.375 3.2812-0.79687v6.7031q-3.3281 0.9375-7.5469 1.5-4.1719 0.60938-8.6719 0.60938-6.0469 0-10.406-1.6406-4.3594-1.6406-7.1719-4.7344-2.7656-3.1406-4.125-7.6406-1.3125-4.5469-1.3125-10.266 0-4.9688 1.4062-9.375 1.4531-4.4531 4.1719-7.7812 2.7656-3.375 6.75-5.3438 3.9844-1.9688 9.0469-1.9688 4.9219 0 8.7188 1.5469 3.7969 1.5469 6.375 4.4062 2.625 2.8125 3.9375 6.8906 1.3594 4.0312 1.3594 9.0469zm-8.4844-1.1719q0.14063-3.1406-0.60937-5.7188-0.75-2.625-2.3438-4.5-1.5469-1.875-3.8906-2.9062-2.3438-1.0781-5.4375-1.0781-2.6719 0-4.875 1.0312-2.2031 1.0312-3.7969 2.9062t-2.5781 4.5q-0.98437 2.625-1.2188 5.7656z"/>
    <path d="m751.53 112h-13.922v-6.7031h22.172v59.438h14.016v6.7969h-37.734v-6.7969h15.469z"/>
    <path d="m804.41 112h-13.922v-6.7031h22.172v59.438h14.016v6.7969h-37.734v-6.7969h15.469z"/>
    <path d="m838.86 148.99q0-6 1.6406-10.641 1.6406-4.6875 4.6406-7.875 3.0469-3.2344 7.2656-4.875 4.2656-1.6875 9.4688-1.6875 2.25 0 4.4062 0.28125 2.2031 0.28125 4.3125 0.89062v-19.781h8.2031v66.234h-7.3125l-0.28125-8.9062q-3.4219 4.9688-7.4062 7.3594-3.9844 2.3906-8.625 2.3906-4.0312 0-7.125-1.6875-3.0469-1.6875-5.1094-4.7344-2.0156-3.0938-3.0469-7.4062t-1.0312-9.5625zm8.3438-0.51562q0 8.5312 2.4844 12.75 2.5312 4.1719 7.125 4.1719 3.0938 0 6.5156-2.7656 3.4688-2.7656 7.2656-8.2031v-21.844q-2.0156-0.9375-4.4531-1.4062-2.4375-0.51562-4.8281-0.51562-6.6562 0-10.406 4.3125-3.7031 4.3125-3.7031 13.5z"/>
    <path d="m910.16 112h-13.922v-6.7031h22.172v59.438h14.016v6.7969h-37.734v-6.7969h15.469z"/>
    <path d="m986.75 145.52q0 1.7344-0.0469 2.9062-0.0469 1.1719-0.14062 2.2031h-33.047q0 7.2188 4.0312 11.109 4.0312 3.8438 11.625 3.8438 2.0625 0 4.125-0.14062 2.0625-0.1875 3.9844-0.46875 1.9219-0.28125 3.6562-0.60938 1.7812-0.375 3.2812-0.79687v6.7031q-3.3281 0.9375-7.5469 1.5-4.1719 0.60938-8.6719 0.60938-6.0469 0-10.406-1.6406-4.3594-1.6406-7.1719-4.7344-2.7656-3.1406-4.125-7.6406-1.3125-4.5469-1.3125-10.266 0-4.9688 1.4062-9.375 1.4531-4.4531 4.1719-7.7812 2.7656-3.375 6.75-5.3438 3.9844-1.9688 9.0469-1.9688 4.9219 0 8.7188 1.5469 3.7969 1.5469 6.375 4.4062 2.625 2.8125 3.9375 6.8906 1.3594 4.0312 1.3594 9.0469zm-8.4844-1.1719q0.14063-3.1406-0.60937-5.7188-0.75-2.625-2.3438-4.5-1.5469-1.875-3.8906-2.9062-2.3438-1.0781-5.4375-1.0781-2.6719 0-4.875 1.0312-2.2031 1.0312-3.7969 2.9062t-2.5781 4.5q-0.98437 2.625-1.2188 5.7656z"/>
   </g>
  </g>
 </g>
</svg>
